# xmcd
#
# Track frame offsets: 
#        150
#        14550
#        29795
#        43975
#        56710
#        68787
#        82805
#        95890
#        109812
#        125227
#        137917
#        151095
#        165520
#        180490
#        193862
#        208570
#        222060
#        235012
#        248487
#        262405
#        276942
#        290452
#        303992
#
# Disc length: 4215 seconds
#
# Revision: 1
# Processed by: cddbd v1.5.2PL0 Copyright (c) Steve Scherf et al.
# Submitted via: ExactAudioCopy v0.99pb5
#
DISCID=5d107517
DTITLE=Various Artist - Mama Don't Allow No Easy Riders Here, Rags Bl
DTITLE=ues Stomps 1928-1935
DYEAR=1998
DGENRE=Blues
TTITLE0=Turner Parrish - Trenches
TTITLE1=Cow Cow Davenport - Mama Don't Allow No Easy Riders Here
TTITLE2=Cow Cow Davenport - Atlanta Rag
TTITLE3=Herve Duerson - Avenue Strut
TTITLE4=Will Ezell - Mixed Up Rag
TTITLE5=Blind Leroy Garnett - Louisiana Glide
TTITLE6=Arnold Wiley - Windy City
TTITLE7=Cow Cow Davenport - Slum Gullion Stomp
TTITLE8=Will Ezell - Old Mill Blues
TTITLE9=Speckled Red - Wilkins Street Blues
TTITLE10=Herve Duerson - Easy Drag
TTITLE11=Cow Cow Davenport - Texas Shout
TTITLE12=Turner Parrish - The Fives
TTITLE13=Arnold Wiley - Arnold Wiley Rag
TTITLE14=Will Ezell - Playing The Dozen
TTITLE15=Blind Leroy Garnett - Chain 'Em Down
TTITLE16=Cow Cow Davenport - Alabama Strut
TTITLE17=Will Ezell - Heifer Dust
TTITLE18=Raymond Barrow - Walking Blues
TTITLE19=Speckled Red - The Dirty Dozen
TTITLE20=Speckled Red - The Dirty Dozen No. 2
TTITLE21=Cow Cow Davenport - Chimin' The Blues
TTITLE22=Oliver Brown - Oh You Devil You
EXTD=c 1998 Yazoo Records\n\nCharles "Cow Cow" Davenport  -  Performer
EXTD=\nSpeckled Red  -  Performer \nBob Hall  -  Liner Notes \nWillia
EXTD=m Ezell  -  Performer \nRichard Nevins  -  Remastering \nJoan Pel
EXTD=osi  -  Design \nFrancis Wilford-Smith  -  Producer \nBlind Leroy
EXTD=Garnett  -  Performer \nArnold "Doc" Wiley  -  Performer
EXTT0=
EXTT1=
EXTT2=
EXTT3=
EXTT4=
EXTT5=
EXTT6=
EXTT7=
EXTT8=
EXTT9=
EXTT10=
EXTT11=
EXTT12=
EXTT13=
EXTT14=
EXTT15=
EXTT16=
EXTT17=
EXTT18=
EXTT19=
EXTT20=
EXTT21=
EXTT22=
PLAYORDER=
